<svg version="1.0" xmlns="http://www.w3.org/2000/svg" width="800.000000" height="800.000000"
  viewBox="0 0 800.000000 800.000000" preserveAspectRatio="xMidYMid meet">
  <metadata>
    <rdf:RDF xmlns:rdf="http://www.w3.org/1999/02/22-rdf-syntax-ns#" xmlns:rdfs="http://www.w3.org/2000/01/rdf-schema#"
      xmlns:dc="http://purl.org/dc/elements/1.1/">
      <rdf:Description dc:format="image/svg+xml" dc:Label="1" dc:ContentProducer="001191330110MACRLGPT8B00000"
        dc:ProduceID="378973685" dc:ReservedCode1="iaD4e578JItY4I2Du+RRfN+2v93YpmC3oYdDd59Jixg="
        dc:ContentPropagator="001191330110MACRLGPT8B00000" dc:PropagateID="378973685"
        dc:ReservedCode2="iaD4e578JItY4I2Du+RRfN+2v93YpmC3oYdDd59Jixg=" />
    </rdf:RDF>
  </metadata>
  <g transform="translate(0.000000,800.000000) scale(0.100000,-0.100000)" fill="#000000" stroke="none">
    <path
      d="M2490 6199 c-134 -29 -316 -158 -418 -297 -100 -136 -155 -274 -187 -472 -19 -120 -19 -176 0 -306 41 -277 128 -477 287 -662 109 -128 285 -248 441 -301 45 -15 50 -21 71 -73 13 -31 37 -75 55 -97 44 -55 141 -117 220 -141 63 -19 310 -62 437 -76 l60 -6 16 -147 c8 -80 12 -150 8 -154 -4 -5 -192 -4 -418 2 -237 6 -421 7 -434 2 -13 -5 -30 -17 -39 -27 -26 -30 -179 -335 -179 -356 0 -11 13 -33 29 -49 32 -31 75 -38 103 -16 9 6 48 73 87 147 l70 135 123 2 c68 2 249 0 403 -5 l280 -7 12 -80 c6 -44 12 -85 12 -91 1 -6 -59 -17 -151 -27 -292 -32 -385 -54 -408 -97 -19 -36 -79 -353 -70 -374 14 -38 45 -58 86 -54 54 4 69 33 95 178 12 69 27 131 33 137 11 12 267 49 375 54 53 3 55 2 62 -26 12 -48 29 -249 21 -256 -4 -3 -27 -12 -51 -19 -63 -20 -161 -82 -194 -122 -33 -41 -175 -390 -183 -452 -14 -99 57 -194 175 -234 69 -24 200 -33 298 -22 l94 12 52 -50 c70 -65 141 -92 247 -92 98 0 167 27 240 96 l50 47 101 -12 c275 -33 464 64 462 239 0 44 -15 91 -72 235 -40 99 -84 198 -99 219 -32 47 -122 108 -204 137 -39 15 -58 27 -58 38 2 41 27 262 32 266 6 6 283 -22 366 -37 49 -9 66 -17 73 -32 7 -18 49 -237 49 -258 0 -4 10 -16 22 -28 50 -46 138 -11 138 57 0 27 -53 304 -66 345 -15 47 -143 79 -441 109 -140 14 -130 3 -112 124 l11 75 172 1 c94 1 268 4 387 8 119 3 223 5 232 3 8 -2 45 -61 81 -132 90 -174 133 -205 198 -140 24 24 29 37 25 58 -11 52 -180 356 -207 369 -25 14 -113 13 -679 -3 l-193 -5 5 23 c3 13 11 79 17 148 6 69 14 128 18 132 4 3 93 18 197 33 105 14 217 33 250 41 164 43 279 140 334 285 6 17 20 29 38 33 49 13 191 83 261 131 132 88 277 257 356 413 110 218 160 495 130 712 -26 189 -69 313 -156 447 -138 213 -447 400 -537 326 -16 -14 -26 -44 -41 -128 -35 -190 -61 -414 -67 -581 l-6 -160 28 -22 c36 -29 80 -28 109 1 21 21 24 36 30 158 7 123 50 507 61 537 7 20 27 14 83 -23 125 -85 239 -233 285 -373 48 -145 62 -259 49 -397 -36 -378 -231 -688 -529 -839 -29 -14 -59 -26 -67 -26 -8 0 -20 17 -27 38 -32 100 -107 195 -186 236 -28 14 -32 23 -47 103 -30 156 -36 233 -43 483 -6 251 3 429 33 625 14 95 14 101 -4 125 -39 52 -116 48 -141 -6 -19 -43 -51 -359 -55 -549 -5 -209 7 -444 29 -599 8 -60 15 -113 15 -118 0 -4 -28 -8 -63 -8 -101 0 -226 -18 -392 -56 -16 -4 -25 5 -44 40 -30 59 -133 156 -199 190 -246 125 -555 33 -680 -201 -58 -110 -95 -300 -108 -557 l-7 -138 -66 7 c-36 4 -131 18 -210 31 -205 34 -286 76 -332 171 -45 93 -15 227 64 287 69 53 101 60 249 58 l136 -3 21 27 c25 31 26 55 6 93 -19 37 -28 40 -146 48 -54 3 -99 8 -99 10 0 2 8 66 17 141 26 206 25 740 -2 957 -18 148 -21 162 -46 188 -30 29 -54 33 -92 16 -46 -21 -51 -45 -33 -175 27 -201 37 -458 26 -700 -10 -215 -16 -272 -41 -405 -11 -63 -14 -67 -58 -95 -25 -16 -61 -45 -79 -64 -33 -34 -102 -162 -102 -187 0 -22 -30 -14 -113 30 -162 86 -297 229 -387 412 -119 242 -149 495 -86 738 50 194 152 340 313 446 57 38 70 39 77 4 17 -80 46 -329 56 -483 11 -166 13 -176 36 -197 34 -31 78 -30 111 3 l26 26 -7 145 c-11 231 -62 620 -91 689 -15 37 -55 54 -105 43z m1633 -1495 c79 -28 149 -91 191 -171 24 -48 53 -184 65 -307 18 -185 10 -558 -14 -663 l-5 -23 -354 0 -354 0 -5 23 c-18 74 -29 312 -24 501 6 221 22 331 66 447 64 169 257 255 434 193z m923 -235 c128 -61 180 -205 118 -325 -55 -106 -134 -142 -391 -178 -100 -14 -189 -26 -197 -26 -11 0 -15 25 -20 118 -4 64 -13 172 -21 239 -8 68 -15 127 -15 132 0 21 136 49 288 61 129 10 184 5 238 -21z m-701 -1098 c1 -1 -6 -49 -15 -108 l-15 -108 -311 -3 -312 -2 -11 87 c-7 49 -14 98 -17 110 -4 22 -2 22 103 25 85 2 577 1 578 -1z m-59 -478 c-4 -54 -11 -101 -15 -106 -4 -4 -126 -6 -272 -5 l-264 3 -11 95 c-6 52 -9 98 -7 103 2 4 133 7 290 7 l286 0 -7 -97z m-32 -400 c-3 -71 -8 -131 -11 -135 -2 -5 -109 -8 -238 -8 -129 0 -236 3 -238 8 -3 4 -8 64 -12 135 l-7 127 257 0 257 0 -8 -127z m-653 -139 c9 -123 32 -304 45 -351 5 -20 1 -22 -52 -28 -86 -11 -195 0 -244 25 -40 20 -42 23 -35 57 3 19 13 49 20 67 8 17 33 79 55 138 53 138 73 167 139 200 30 16 56 26 58 24 2 -2 8 -62 14 -132z m877 112 c26 -13 57 -35 68 -48 28 -30 154 -346 154 -384 0 -8 -19 -23 -42 -35 -49 -25 -154 -36 -243 -24 -55 6 -57 7 -51 33 13 62 35 234 41 327 6 104 13 155 21 155 3 0 26 -11 52 -24z m-262 -338 c-19 -185 -94 -288 -210 -288 -84 0 -144 45 -180 136 -18 44 -47 195 -39 207 2 4 101 7 220 7 l216 0 -7 -62z" />
    <path
      d="M4185 5377 c-2 -7 -18 -66 -35 -132 -17 -66 -35 -130 -40 -142 -11 -27 -1 -34 75 -52 28 -7 57 -14 66 -17 11 -3 18 3 22 18 3 13 21 83 40 156 l36 133 -25 10 c-14 5 -31 9 -38 9 -8 0 -32 7 -55 15 -32 11 -43 12 -46 2z" />
    <path
      d="M3723 5362 c-35 -8 -63 -20 -63 -26 0 -13 77 -296 82 -301 3 -3 150 34 156 40 3 2 -53 220 -74 288 -6 20 -18 20 -101 -1z" />
    <path d="M3978 1663 c12 -2 32 -2 45 0 12 2 2 4 -23 4 -25 0 -35 -2 -22 -4z" />
  </g>
</svg>