<svg height="1024" node-id="1" sillyvg="true" template-height="1024" template-width="1024" version="1.1"
  viewBox="0 0 1024 1024" width="1024" xmlns="http://www.w3.org/2000/svg" xmlns:xlink="http://www.w3.org/1999/xlink">
  <defs node-id="30">
    <mask height="50.87384" id="mask-2" maskUnits="userSpaceOnUse" node-id="16" width="418.77307" x="216.14893"
      y="784.958">
      <path
        d="M 505.44 688.10 L 505.44 730.50 C 505.44 773.73 532.58 810.62 570.74 825.07 L 309.75 825.07 C 275.53 825.07 247.79 797.33 247.79 763.11 L 247.79 688.10 L 505.44 688.10 Z"
        fill="#ffffff" fill-rule="evenodd" node-id="35" stroke="none" target-height="136.97137" target-width="322.95898"
        target-x="247.7852" target-y="688.1019" />
    </mask>
  </defs>
  <g node-id="53">
    <path
      d="M 754.94 200.56 L 754.94 769.63 C 754.94 785.39 748.56 799.66 738.23 809.99 C 727.90 820.31 713.63 826.70 697.87 826.70 L 361.93 826.70 C 346.17 826.70 331.90 820.31 321.58 809.99 C 311.25 799.66 304.86 785.39 304.86 769.63 L 304.86 257.63 C 304.86 241.87 311.25 227.60 321.58 217.28 C 331.90 206.95 346.17 200.56 361.93 200.56 L 754.94 200.56 Z"
      fill="#ffffff" fill-rule="evenodd" group-id="1" id="形状结合" node-id="8" stroke="#000000" stroke-linecap="butt"
      stroke-width="3.2611465" target-height="626.1401" target-width="450.08356" target-x="304.86078"
      target-y="200.56047" />
    <path
      d="M 213.54 665.27 C 213.54 669.17 211.99 672.90 209.24 675.65 C 206.49 678.40 202.76 679.95 198.86 679.95 C 194.97 679.95 191.24 678.40 188.49 675.65 C 185.73 672.90 184.19 669.17 184.19 665.27 C 184.19 661.38 185.73 657.65 188.49 654.90 C 191.24 652.14 194.97 650.60 198.86 650.60 C 202.76 650.60 206.49 652.14 209.24 654.90 C 211.99 657.65 213.54 661.38 213.54 665.27 Z"
      fill="#ffffff" fill-rule="evenodd" group-id="1" id="椭圆形" node-id="9" stroke="#3952cb" stroke-linecap="butt"
      stroke-width="3.2611465" target-height="29.350342" target-width="29.353577" target-x="184.18631"
      target-y="650.5987" />
    <path
      d="M 397.81 436.99 L 417.38 436.99 C 422.79 436.99 427.17 441.37 427.17 446.78 L 427.17 466.34 C 427.17 471.75 422.79 476.13 417.38 476.13 L 397.81 476.13 C 392.41 476.13 388.03 471.75 388.03 466.34 L 388.03 446.78 C 388.03 441.37 392.41 436.99 397.81 436.99 Z M 463.04 436.99 L 642.43 436.99 C 653.23 436.99 661.99 445.75 661.99 456.56 C 661.99 467.37 653.23 476.13 642.43 476.13 L 463.04 476.13 C 452.23 476.13 443.47 467.37 443.47 456.56 C 443.47 445.75 452.23 436.99 463.04 436.99 Z"
      fill="#dddddd" fill-rule="evenodd" group-id="1" id="形状结合备份" node-id="10" stroke="none" target-height="39.13376"
      target-width="273.96368" target-x="388.0285" target-y="436.9936" />
    <path
      d="M 750.05 200.56 C 757.71 200.56 764.64 203.66 769.65 208.68 C 774.67 213.70 777.77 220.63 777.77 228.28 L 777.77 738.65 L 815.28 738.65 C 822.04 738.65 828.15 741.39 832.58 745.81 C 837.00 750.24 839.74 756.35 839.74 763.11 L 839.74 802.24 C 839.74 809.00 837.00 815.11 832.58 819.54 C 828.15 823.96 822.04 826.70 815.28 826.70 L 681.62 826.70 C 690.39 823.69 698.24 818.71 704.66 812.29 C 715.58 801.37 722.33 786.29 722.33 769.63 L 722.33 228.28 C 722.46 220.52 725.58 213.60 730.57 208.62 C 735.58 203.61 742.46 200.56 750.05 200.56 Z"
      fill="#32323b" fill-rule="evenodd" group-id="1" id="形状结合" node-id="11" stroke="#000000" stroke-linecap="butt"
      stroke-width="3.2611465" target-height="626.1401" target-width="158.12708" target-x="681.6155"
      target-y="200.56047" />
    <path
      d="M 865.83 689.73 L 865.83 782.67 C 865.83 794.83 860.91 805.84 852.94 813.80 C 844.97 821.77 833.96 826.70 821.80 826.70 C 809.65 826.70 798.64 821.77 790.67 813.80 C 782.70 805.84 777.77 794.83 777.77 782.67 L 777.77 689.73 L 865.83 689.73 Z"
      fill="#999999" fill-rule="evenodd" group-id="1" id="矩形" node-id="12" stroke="#000000" stroke-linecap="butt"
      stroke-width="3.2611465" target-height="136.96814" target-width="88.06006" target-x="777.7743"
      target-y="689.7324" />
    <path
      d="M 365.20 710.93 L 684.82 710.93 L 684.82 710.93 L 684.82 763.11 C 684.82 797.33 657.08 825.07 622.86 825.07 L 365.20 825.07 C 350.79 825.07 339.11 813.39 339.11 798.98 L 339.11 737.02 C 339.11 722.61 350.79 710.93 365.20 710.93 Z"
      fill="#dddddd" fill-rule="evenodd" group-id="1" id="矩形" node-id="13" stroke="none" target-height="114.14014"
      target-width="345.7161" target-x="339.1064" target-y="710.92993" />
    <path
      d="M 507.07 686.47 L 507.07 730.50 C 507.07 757.96 518.21 782.83 536.20 800.83 C 548.46 813.09 563.90 822.16 581.18 826.70 L 309.75 826.70 C 292.19 826.70 276.29 819.58 264.78 808.07 C 253.27 796.57 246.15 780.67 246.15 763.11 L 246.15 686.47 L 507.07 686.47 Z"
      fill="#ffffff" fill-rule="evenodd" group-id="1" id="蒙版" node-id="14" stroke="#000000" stroke-linecap="butt"
      stroke-width="3.2611465" target-height="140.22925" target-width="335.02643" target-x="246.1543"
      target-y="686.4713" />
    <g node-id="54">
      <g node-id="56">
        <path
          d="M 505.44 688.10 L 505.44 730.50 C 505.44 773.73 532.58 810.62 570.74 825.07 L 309.75 825.07 C 275.53 825.07 247.79 797.33 247.79 763.11 L 247.79 688.10 L 505.44 688.10 Z"
          fill="#ffffff" fill-rule="evenodd" group-id="1,2,4" node-id="51" stroke="none" target-height="136.97137"
          target-width="322.95898" target-x="247.7852" target-y="688.1019" />
      </g>
      <path d="M 251.05 789.20 L 600.02 789.20 L 600.02 831.59 L 251.05 831.59 Z" fill="#dddddd" fill-rule="evenodd"
        group-id="1,2,5" id="矩形" node-id="19" stroke="none" target-height="42.394897" target-width="348.97754"
        target-x="251.04668" target-y="789.1975" />
    </g>
    <path
      d="M 397.81 531.57 L 417.38 531.57 C 422.79 531.57 427.17 535.95 427.17 541.35 L 427.17 560.92 C 427.17 566.32 422.79 570.70 417.38 570.70 L 397.81 570.70 C 392.41 570.70 388.03 566.32 388.03 560.92 L 388.03 541.35 C 388.03 535.95 392.41 531.57 397.81 531.57 Z M 463.04 531.57 L 583.72 531.57 C 594.53 531.57 603.29 540.33 603.29 551.13 C 603.29 561.94 594.53 570.70 583.72 570.70 L 463.04 570.70 C 452.23 570.70 443.47 561.94 443.47 551.13 C 443.47 540.33 452.23 531.57 463.04 531.57 Z"
      fill="#dddddd" fill-rule="evenodd" group-id="1" id="形状结合备份-2" node-id="20" stroke="none" target-height="39.133728"
      target-width="215.25714" target-x="388.0285" target-y="531.56683" />
    <path
      d="M 327.69 428.84 C 366.47 428.84 401.59 441.11 427.01 460.97 C 452.26 480.71 467.93 507.96 467.93 538.09 C 467.93 551.33 464.91 564.02 459.37 575.76 C 458.47 577.65 458.57 580.24 460.06 583.57 C 461.32 586.39 463.58 589.82 466.87 593.83 C 472.68 600.92 481.76 609.92 494.10 620.84 C 449.40 617.15 424.34 617.45 418.62 621.25 C 394.12 637.53 362.37 647.34 327.69 647.34 C 288.91 647.34 253.79 635.07 228.38 615.21 C 203.12 595.47 187.45 568.22 187.45 538.09 C 187.45 507.96 203.12 480.71 228.38 460.97 C 253.79 441.11 288.91 428.84 327.69 428.84 Z"
      fill="#5478eb" fill-rule="evenodd" group-id="1" id="椭圆形" node-id="21" stroke="#3451de" stroke-linecap="butt"
      stroke-width="3.2611465" target-height="218.4968" target-width="306.65564" target-x="187.44778"
      target-y="428.84073" />
    <path
      d="M 286.92 539.72 C 286.92 551.43 277.43 560.92 265.72 560.92 C 254.02 560.92 244.52 551.43 244.52 539.72 C 244.52 528.01 254.02 518.52 265.72 518.52 C 277.43 518.52 286.92 528.01 286.92 539.72 Z"
      fill="#ffffff" fill-rule="evenodd" group-id="1" id="椭圆形" node-id="22" stroke="none" target-height="42.394897"
      target-width="42.39914" target-x="244.52371" target-y="518.5222" />
    <path
      d="M 348.89 539.72 C 348.89 551.43 339.40 560.92 327.69 560.92 C 315.98 560.92 306.49 551.43 306.49 539.72 C 306.49 528.01 315.98 518.52 327.69 518.52 C 339.40 518.52 348.89 528.01 348.89 539.72 Z"
      fill="#ffffff" fill-rule="evenodd" group-id="1" id="椭圆形备份" node-id="23" stroke="none" target-height="42.394897"
      target-width="42.39914" target-x="306.4917" target-y="518.5222" />
    <path
      d="M 410.86 539.72 C 410.86 551.43 401.37 560.92 389.66 560.92 C 377.95 560.92 368.46 551.43 368.46 539.72 C 368.46 528.01 377.95 518.52 389.66 518.52 C 401.37 518.52 410.86 528.01 410.86 539.72 Z"
      fill="#ffffff" fill-rule="evenodd" group-id="1" id="椭圆形备份-2" node-id="24" stroke="none" target-height="42.394897"
      target-width="42.39917" target-x="368.45966" target-y="518.5222" />
    <path
      d="M 397.81 342.42 L 417.38 342.42 C 422.79 342.42 427.17 346.80 427.17 352.20 L 427.17 371.77 C 427.17 377.17 422.79 381.55 417.38 381.55 L 397.81 381.55 C 392.41 381.55 388.03 377.17 388.03 371.77 L 388.03 352.20 C 388.03 346.80 392.41 342.42 397.81 342.42 Z M 463.04 342.42 L 642.43 342.42 C 653.23 342.42 661.99 351.18 661.99 361.99 C 661.99 372.79 653.23 381.55 642.43 381.55 L 463.04 381.55 C 452.23 381.55 443.47 372.79 443.47 361.99 C 443.47 351.18 452.23 342.42 463.04 342.42 Z"
      fill="#dddddd" fill-rule="evenodd" group-id="1" id="形状结合" node-id="25" stroke="none" target-height="39.13379"
      target-width="273.96368" target-x="388.0285" target-y="342.42035" />
    <path d="M 177.26 456.56 L 156.53 471.56" fill="none" group-id="1" id="路径-8" node-id="26" stroke="#3451de"
      stroke-linecap="round" stroke-width="3.2611465" target-height="14.999847" target-width="20.725204"
      target-x="156.535" target-y="456.5605" />
    <path d="M 187.04 466.34 L 166.32 481.34" fill="none" group-id="1" id="路径-8备份" node-id="27" stroke="#3451de"
      stroke-linecap="round" stroke-width="3.2611465" target-height="14.999878" target-width="20.72519"
      target-x="166.31943" target-y="466.3439" />
    <g node-id="55">
      <path d="M 518.56 593.53 L 525.01 614.00" fill="none" group-id="1,3" id="路径-8备份-2" node-id="28" stroke="#3451de"
        stroke-linecap="round" stroke-width="3.2611465" target-height="20.470032" target-width="6.4519043"
        target-x="518.55835" target-y="593.5286" />
    </g>
  </g>
</svg>