<svg t="1772270041369" class="icon" viewBox="0 0 1024 1024" version="1.1" xmlns="http://www.w3.org/2000/svg" p-id="7322"
  width="200" height="200">
  <path d="M512 1024C229.2224 1024 0 794.7776 0 512S229.2224 0 512 0s512 229.2224 512 512-229.2224 512-512 512z"
    fill="#3CC889" p-id="7323"></path>
  <path
    d="M539.136 305.664l153.6 153.6a38.4 38.4 0 0 1-54.272 54.272l-88.064-88.0128V691.2a38.4 38.4 0 1 1-76.8 0V425.5232l-88.064 88.064a38.4 38.4 0 0 1-49.9712 3.6864l-4.3008-3.7376a38.4 38.4 0 0 1 0-54.272l153.6-153.6a38.4 38.4 0 0 1 54.272 0z"
    fill="#FFFFFF" p-id="7324"></path>
</svg>