<svg height="1024" node-id="1" sillyvg="true" template-height="1024" template-width="1024" version="1.1"
  viewBox="0 0 1024 1024" width="1024" xmlns="http://www.w3.org/2000/svg" xmlns:xlink="http://www.w3.org/1999/xlink">
  <defs node-id="34"></defs>
  <g node-id="36">
    <path
      d="M 533.69 247.85 C 540.89 247.85 546.73 253.69 546.73 260.89 L 546.73 348.94 C 546.73 354.06 543.78 358.50 539.48 360.63 C 624.16 384.11 686.40 438.40 726.22 523.49 C 771.55 521.70 808.82 530.95 838.04 551.27 C 867.25 571.58 888.56 599.80 901.98 635.92 L 939.21 635.92 L 939.21 704.41 L 801.25 704.41 C 785.27 637.37 747.27 603.85 687.27 603.85 C 627.27 603.85 589.88 637.37 575.11 704.41 L 433.50 704.41 C 423.03 637.37 386.43 603.85 323.71 603.85 C 260.98 603.85 224.36 637.37 213.87 704.41 L 118.90 704.41 C 114.08 650.56 121.07 603.37 139.88 562.83 C 158.69 522.29 198.81 486.52 260.25 455.52 C 301.39 408.93 345.27 377.75 391.91 361.98 L 367.24 361.99 C 360.03 361.99 354.19 356.15 354.19 348.94 L 354.19 260.89 C 354.19 253.69 360.03 247.85 367.24 247.85 L 533.69 247.85 Z"
      fill="#30313a" fill-rule="evenodd" group-id="1" id="形状结合" node-id="6" stroke="#000000" stroke-linecap="butt"
      stroke-width="3.2611465" target-height="456.56055" target-width="825.1332" target-x="114.07704"
      target-y="247.84712" />
    <g node-id="37">
      <path
        d="M 360.71 267.41 L 514.11 267.41 C 521.32 267.41 527.16 273.25 527.16 280.46 L 527.16 355.46 C 527.16 362.67 521.32 368.51 514.11 368.51 L 360.71 368.51 C 353.50 368.51 347.66 362.67 347.66 355.46 L 347.66 280.46 C 347.66 273.25 353.50 267.41 360.71 267.41 Z"
        fill="#5478eb" fill-rule="evenodd" group-id="1,2" id="矩形" node-id="8" stroke="#3451de" stroke-linecap="butt"
        stroke-width="13.044586" target-height="101.09555" target-width="179.4953" target-x="347.66107"
        target-y="267.414" />
      <path
        d="M 386.83 303.29 L 386.83 303.29 C 388.63 303.29 390.09 304.75 390.09 306.55 L 390.09 329.37 C 390.09 331.18 388.63 332.64 386.83 332.64 L 386.83 332.64 C 385.02 332.64 383.56 331.18 383.56 329.37 L 383.56 306.55 C 383.56 304.75 385.02 303.29 386.83 303.29 Z"
        fill="#ffffff" fill-rule="evenodd" group-id="1,2" id="矩形" node-id="9" stroke="none" target-height="29.350342"
        target-width="6.526764" target-x="383.56284" target-y="303.28662" />
      <path
        d="M 409.67 303.29 L 409.67 303.29 C 411.47 303.29 412.93 304.75 412.93 306.55 L 412.93 329.37 C 412.93 330.24 412.59 331.07 411.98 331.68 C 411.37 332.29 410.54 332.64 409.67 332.64 L 409.67 332.64 C 408.80 332.64 407.97 332.29 407.36 331.68 C 406.75 331.07 406.41 330.24 406.41 329.37 L 406.41 306.55 C 406.41 304.75 407.87 303.29 409.67 303.29 Z"
        fill="#e0ecff" fill-rule="evenodd" group-id="1,2" id="矩形备份-2" node-id="10" stroke="none"
        target-height="29.350342" target-width="6.526764" target-x="406.40656" target-y="303.28662" />
      <path
        d="M 435.78 303.29 L 435.78 303.29 C 437.58 303.29 439.04 304.75 439.04 306.55 L 439.04 329.37 C 439.04 330.24 438.70 331.07 438.08 331.68 C 437.47 332.29 436.64 332.64 435.78 332.64 L 435.78 332.64 C 434.91 332.64 434.08 332.29 433.47 331.68 C 432.86 331.07 432.51 330.24 432.51 329.37 L 432.51 306.55 C 432.51 304.75 433.97 303.29 435.78 303.29 Z"
        fill="#bcceff" fill-rule="evenodd" group-id="1,2" id="矩形备份-3" node-id="11" stroke="none"
        target-height="29.350342" target-width="6.526764" target-x="432.51364" target-y="303.28662" />
      <path
        d="M 461.88 303.29 L 461.88 303.29 C 463.69 303.29 465.15 304.75 465.15 306.55 L 465.15 329.37 C 465.15 330.24 464.80 331.07 464.19 331.68 C 463.58 332.29 462.75 332.64 461.88 332.64 L 461.88 332.64 C 461.02 332.64 460.19 332.29 459.58 331.68 C 458.96 331.07 458.62 330.24 458.62 329.37 L 458.62 306.55 C 458.62 304.75 460.08 303.29 461.88 303.29 Z"
        fill="#98aef6" fill-rule="evenodd" group-id="1,2" id="矩形备份-4" node-id="12" stroke="none"
        target-height="29.350342" target-width="6.526764" target-x="458.62076" target-y="303.28662" />
      <path
        d="M 487.99 303.29 L 487.99 303.29 C 489.79 303.29 491.25 304.75 491.25 306.55 L 491.25 329.37 C 491.25 331.18 489.79 332.64 487.99 332.64 L 487.99 332.64 C 486.19 332.64 484.73 331.18 484.73 329.37 L 484.73 306.55 C 484.73 304.75 486.19 303.29 487.99 303.29 Z"
        fill="#7691f3" fill-rule="evenodd" group-id="1,2" id="矩形备份-5" node-id="13" stroke="none"
        target-height="29.350342" target-width="6.5267944" target-x="484.72784" target-y="303.28662" />
    </g>
    <g node-id="38">
      <path
        d="M 378.67 707.67 C 378.67 746.39 347.26 777.78 308.50 777.78 C 269.75 777.78 238.34 746.39 238.34 707.67 C 238.34 668.95 269.75 637.55 308.50 637.55 C 347.26 637.55 378.67 668.95 378.67 707.67 Z"
        fill="#32323b" fill-rule="evenodd" group-id="1,3" id="椭圆形" node-id="15" stroke="#000000" stroke-linecap="butt"
        stroke-width="3.2611465" target-height="140.22931" target-width="140.32788" target-x="238.34097"
        target-y="637.5541" />
      <path
        d="M 331.36 707.67 C 331.36 720.28 321.12 730.50 308.50 730.50 C 295.88 730.50 285.65 720.28 285.65 707.67 C 285.65 695.06 295.88 684.84 308.50 684.84 C 321.12 684.84 331.36 695.06 331.36 707.67 Z"
        fill="#32323b" fill-rule="evenodd" group-id="1,3" id="椭圆形" node-id="16" stroke="#ffffff" stroke-linecap="butt"
        stroke-width="19.56688" target-height="45.656067" target-width="45.700867" target-x="285.65448"
        target-y="684.8407" />
    </g>
    <g node-id="39">
      <path
        d="M 731.11 707.67 C 731.11 746.39 699.70 777.78 660.95 777.78 C 622.20 777.78 590.79 746.39 590.79 707.67 C 590.79 668.95 622.20 637.55 660.95 637.55 C 699.70 637.55 731.11 668.95 731.11 707.67 Z"
        fill="#32323b" fill-rule="evenodd" group-id="1,4" id="椭圆形" node-id="18" stroke="#000000" stroke-linecap="butt"
        stroke-width="3.2611465" target-height="140.22931" target-width="140.32788" target-x="590.78674"
        target-y="637.5541" />
      <path
        d="M 683.80 707.67 C 683.80 720.28 673.57 730.50 660.95 730.50 C 648.33 730.50 638.10 720.28 638.10 707.67 C 638.10 695.06 648.33 684.84 660.95 684.84 C 673.57 684.84 683.80 695.06 683.80 707.67 Z"
        fill="#32323b" fill-rule="evenodd" group-id="1,4" id="椭圆形" node-id="19" stroke="#ffffff" stroke-linecap="butt"
        stroke-width="19.56688" target-height="45.656067" target-width="45.700867" target-x="638.1003"
        target-y="684.8407" />
    </g>
    <path
      d="M 181.23 704.41 C 191.73 637.37 228.34 603.85 291.07 603.85 C 353.80 603.85 390.40 637.37 400.87 704.41 L 542.48 704.41 C 557.25 637.37 594.64 603.85 654.64 603.85 C 714.64 603.85 752.63 637.37 768.62 704.41 L 906.58 704.41 L 906.58 635.92 L 869.35 635.92 C 855.93 599.80 834.61 571.58 805.40 551.27 C 776.19 530.95 738.92 521.70 693.58 523.49 C 650.52 431.46 581.22 375.46 485.68 355.50 C 390.14 335.53 304.12 368.87 227.62 455.52 C 166.18 486.52 126.05 522.29 107.25 562.83 C 88.44 603.37 81.44 650.56 86.27 704.41 L 181.23 704.41 Z"
      fill="#ffffff" fill-rule="evenodd" group-id="1" id="路径-62" node-id="20" stroke="#000000" stroke-linecap="butt"
      stroke-width="3.2611465" target-height="368.87692" target-width="825.13306" target-x="81.44317"
      target-y="335.53073" />
    <path
      d="M 818.68 443.91 C 824.09 443.91 828.47 448.30 828.47 453.71 C 828.47 459.12 824.09 463.50 818.68 463.50 C 813.27 463.50 808.89 459.12 808.89 453.71 C 808.89 448.30 813.27 443.91 818.68 443.91 Z M 818.68 447.18 C 815.08 447.18 812.15 450.10 812.15 453.71 C 812.15 457.31 815.08 460.24 818.68 460.24 C 822.29 460.24 825.21 457.31 825.21 453.71 C 825.21 450.10 822.29 447.18 818.68 447.18 Z"
      fill="#3451de" fill-rule="nonzero" group-id="1" id="椭圆形" node-id="21" stroke="none" target-height="19.589783"
      target-width="19.581055" target-x="808.89154" target-y="443.9128" />
    <g node-id="40">
      <g node-id="41">
        <path
          d="M 437.41 389.71 L 437.41 536.46 L 251.82 536.46 C 262.02 494.25 286.04 457.49 318.78 431.31 C 351.37 405.27 392.59 389.71 437.42 389.71 L 437.41 389.71 Z"
          fill="#ffffff" fill-rule="evenodd" group-id="1,5,6" id="形状结合" node-id="24" stroke="#000000"
          stroke-linecap="butt" stroke-width="3.2611465" target-height="146.7514" target-width="185.59439"
          target-x="251.82413" target-y="389.70642" />
        <path
          d="M 353.41 456.56 L 375.98 456.56 C 379.58 456.56 382.50 459.48 382.50 463.08 L 382.50 534.83 L 382.50 534.83 L 346.89 534.83 L 346.89 463.08 C 346.89 459.48 349.81 456.56 353.41 456.56 Z"
          fill="#32323b" fill-rule="evenodd" group-id="1,5,6" id="矩形" node-id="25" stroke="none"
          target-height="78.26752" target-width="35.613068" target-x="346.8905" target-y="456.5605" />
      </g>
      <g node-id="42">
        <path
          d="M 453.73 389.71 L 453.73 536.46 L 639.31 536.46 C 629.11 494.25 605.09 457.49 572.35 431.31 C 539.77 405.27 498.55 389.71 453.72 389.71 L 453.73 389.71 Z"
          fill="#ffffff" fill-rule="evenodd" group-id="1,5,7" id="形状结合" node-id="27" stroke="#000000"
          stroke-linecap="butt" stroke-width="3.2611465" target-height="146.7514" target-width="185.59436"
          target-x="453.71582" target-y="389.70642" />
        <path
          d="M 501.82 456.56 L 479.26 456.56 C 475.65 456.56 472.73 459.48 472.73 463.08 L 472.73 534.83 L 472.73 534.83 L 508.35 534.83 L 508.35 463.08 C 508.35 459.48 505.43 456.56 501.82 456.56 Z"
          fill="#32323b" fill-rule="evenodd" group-id="1,5,7" id="矩形" node-id="28" stroke="none"
          target-height="78.26752" target-width="35.613068" target-x="472.73352" target-y="456.5605" />
        <path d="M 566.31 502.22 L 563.05 502.22 L 563.05 534.83 L 566.31 534.83 Z" fill="#32323b" fill-rule="evenodd"
          group-id="1,5,7" id="矩形" node-id="29" stroke="none" target-height="32.61145" target-width="3.2633667"
          target-x="563.04913" target-y="502.21655" />
        <g node-id="43">
          <path d="M 581.37 487.65 L 579.06 485.35 L 532.91 531.47 L 535.22 533.77 Z" fill="#32323b" fill-rule="evenodd"
            group-id="1,5,7,8" id="矩形备份" node-id="30" stroke="none" target-height="48.425537" target-width="48.4588"
            target-x="532.91266" target-y="485.34778" />
        </g>
      </g>
    </g>
    <path
      d="M 97.17 486.16 C 97.95 485.69 98.95 485.94 99.41 486.71 L 109.57 503.57 C 110.04 504.34 109.79 505.34 109.02 505.81 C 108.25 506.27 107.24 506.02 106.78 505.25 L 96.62 488.40 C 96.15 487.63 96.40 486.62 97.17 486.16 Z"
      fill="#3451de" fill-rule="nonzero" group-id="1" id="路径-19" node-id="31" stroke="none" target-height="20.582184"
      target-width="13.88485" target-x="96.154015" target-y="485.6912" />
    <path
      d="M 111.07 476.13 C 111.97 476.13 112.70 476.86 112.70 477.76 L 112.70 492.79 C 112.70 493.70 111.97 494.43 111.07 494.43 C 110.17 494.43 109.44 493.70 109.44 492.79 L 109.44 477.76 C 109.44 476.86 110.17 476.13 111.07 476.13 Z"
      fill="#3451de" fill-rule="nonzero" group-id="1" id="路径-19备份" node-id="32" stroke="none" target-height="18.299072"
      target-width="3.2635117" target-x="109.439064" target-y="476.12738" />
  </g>
</svg>